# xmcd
#
# Track frame offsets:
#	150
#	13877
#	34182
#	52312
#	67929
#	88699
#	109814
#	122641
#	140013
#	159058
#	173085
#
# Disc length: 2711 seconds
#
# Revision: 4
# Processed by: cddbd v1.5.2PL0 Copyright (c) Steve Scherf et al.
# Submitted via: EZCDAudioConverter 8.5.0.1
#
DISCID=920a950b
DTITLE=Tom Petty and the Heartbreakers - Hypnotic Eye
DYEAR=2014
DGENRE=Pop/Rock
TTITLE0=American Dream Plan B
TTITLE1=Fault Lines
TTITLE2=Red River
TTITLE3=Full Grown Boy
TTITLE4=All You Can Carry
TTITLE5=Power Drunk
TTITLE6=Forgotten Man
TTITLE7=Sins of My Youth
TTITLE8=U Get Me High
TTITLE9=Burnt Out Town
TTITLE10=Shadow People
EXTD=
EXTT0=
EXTT1=
EXTT2=
EXTT3=
EXTT4=
EXTT5=
EXTT6=
EXTT7=
EXTT8=
EXTT9=
EXTT10=
PLAYORDER=
